<svg width="12" height="12" viewBox="0 0 12 12" fill="none" xmlns="http://www.w3.org/2000/svg">
    <path d="M10.125 0H1.875C0.841125 0 0 0.841125 0 1.875V2.8125C0 3.07139 0.209859 3.28125 0.46875 3.28125C0.727641 3.28125 0.9375 3.07139 0.9375 2.8125V1.875C0.9375 1.35806 1.35806 0.9375 1.875 0.9375H10.125C10.6419 0.9375 11.0625 1.35806 11.0625 1.875V10.125C11.0625 10.6419 10.6419 11.0625 10.125 11.0625H1.875C1.35806 11.0625 0.9375 10.6419 0.9375 10.125V9.1875C0.9375 8.92861 0.727641 8.71875 0.46875 8.71875C0.209859 8.71875 0 8.92861 0 9.1875V10.125C0 11.1589 0.841125 12 1.875 12H10.125C11.1589 12 12 11.1589 12 10.125V1.875C12 0.841125 11.1589 0 10.125 0Z" fill="#000033"/>
    <path d="M7.8731 5.00549L6.12036 3.25433C5.93722 3.07135 5.64043 3.07149 5.45745 3.25463C5.27448 3.43778 5.27462 3.73456 5.45776 3.91754L7.21036 5.66854C7.39313 5.8513 7.39313 6.14868 7.21036 6.33145C7.20968 6.33213 7.209 6.33283 7.20832 6.33351L5.45558 8.10811C5.27366 8.2923 5.27549 8.58909 5.45968 8.77102C5.55102 8.86125 5.67005 8.90627 5.78905 8.90627C5.90998 8.90627 6.03087 8.85975 6.12256 8.76691L7.87442 6.99323C8.42159 6.44484 8.42119 5.55358 7.8731 5.00549Z" fill="#000033"/>
    <path d="M5.46094 5.53125H0.46875C0.209859 5.53125 0 5.74111 0 6C0 6.25889 0.209859 6.46875 0.46875 6.46875H5.46094C5.71983 6.46875 5.92969 6.25889 5.92969 6C5.92969 5.74111 5.71983 5.53125 5.46094 5.53125Z" fill="#000033"/>
</svg>
