<svg width="17" height="17" viewBox="0 0 17 17" fill="none" xmlns="http://www.w3.org/2000/svg">
    <g clip-path="url(#clip0_4027_14038)">
        <path d="M12.3845 16.9998C12.6103 17.0011 12.834 16.9575 13.0427 16.8714C13.2514 16.7852 13.4409 16.6584 13.6 16.4983L15.9035 14.1948C16.0618 14.0356 16.1507 13.8201 16.1507 13.5956C16.1507 13.371 16.0618 13.1556 15.9035 12.9963L12.5035 9.59633C12.3443 9.43801 12.1288 9.34915 11.9043 9.34915C11.6797 9.34915 11.4643 9.43801 11.305 9.59633L9.94503 10.9478C9.00344 10.6968 8.13139 10.2346 7.39503 9.59633C6.75848 8.85879 6.29651 7.98715 6.04353 7.04633L7.39503 5.68633C7.55334 5.52707 7.6422 5.31164 7.6422 5.08708C7.6422 4.86252 7.55334 4.64709 7.39503 4.48783L3.99503 1.08783C3.83577 0.929514 3.62034 0.840653 3.39578 0.840653C3.17122 0.840653 2.95579 0.929514 2.79653 1.08783L0.501528 3.39983C0.341416 3.55898 0.214607 3.74844 0.128503 3.95713C0.0423988 4.16582 -0.00127564 4.38957 2.83617e-05 4.61533C0.0771428 7.88128 1.38219 10.9982 3.65503 13.3448C6.00164 15.6177 9.11858 16.9227 12.3845 16.9998ZM3.40003 2.89833L5.60153 5.09983L4.50503 6.19633C4.40118 6.29361 4.32341 6.4154 4.27885 6.55055C4.2343 6.68569 4.22439 6.82986 4.25003 6.96983C4.56773 8.38964 5.24037 9.70568 6.20503 10.7948C7.29333 11.7607 8.6097 12.4335 10.03 12.7498C10.1679 12.7786 10.3107 12.7728 10.4457 12.7327C10.5808 12.6926 10.7037 12.6197 10.8035 12.5203L11.9 11.3983L14.1015 13.5998L12.4015 15.2998C9.5827 15.2272 6.89311 14.1023 4.86203 12.1463C2.901 10.1144 1.7728 7.42127 1.70003 4.59833L3.40003 2.89833ZM15.3 7.64983H17C17.0221 6.63918 16.8393 5.63453 16.4626 4.69642C16.086 3.75832 15.5233 2.90619 14.8085 2.19138C14.0937 1.47657 13.2415 0.913888 12.3034 0.537242C11.3653 0.160596 10.3607 -0.0222143 9.35003 -0.000172689V1.69983C10.1387 1.67254 10.9247 1.80779 11.6589 2.09715C12.3931 2.38651 13.06 2.8238 13.618 3.38184C14.1761 3.93988 14.6133 4.60675 14.9027 5.34098C15.1921 6.07521 15.3273 6.86111 15.3 7.64983Z" fill="#000033"/>
        <path d="M9.34961 5.10039C11.1346 5.10039 11.8996 5.86539 11.8996 7.65039H13.5996C13.5996 4.91339 12.0866 3.40039 9.34961 3.40039V5.10039Z" fill="#000033"/>
    </g>
    <defs>
        <clipPath id="clip0_4027_14038">
            <rect width="17" height="17" fill="white"/>
        </clipPath>
    </defs>
</svg>
