<svg width="16" height="16" viewBox="0 0 16 16" fill="none" xmlns="http://www.w3.org/2000/svg">
    <path d="M5.03125 1.85H4.875C4.96094 1.85 5.03125 1.7825 5.03125 1.7V1.85H10.9688V1.7C10.9688 1.7825 11.0391 1.85 11.125 1.85H10.9688V3.2H12.375V1.7C12.375 1.03813 11.8145 0.5 11.125 0.5H4.875C4.18555 0.5 3.625 1.03813 3.625 1.7V3.2H5.03125V1.85ZM14.875 3.2H1.125C0.779297 3.2 0.5 3.46813 0.5 3.8V4.4C0.5 4.4825 0.570312 4.55 0.65625 4.55H1.83594L2.31836 14.3563C2.34961 14.9956 2.90039 15.5 3.56641 15.5H12.4336C13.1016 15.5 13.6504 14.9975 13.6816 14.3563L14.1641 4.55H15.3438C15.4297 4.55 15.5 4.4825 15.5 4.4V3.8C15.5 3.46813 15.2207 3.2 14.875 3.2ZM12.2832 14.15H3.7168L3.24414 4.55H12.7559L12.2832 14.15Z" fill="#0066FF"/>
</svg>
