<svg width="32" height="29" viewBox="0 0 32 29" fill="none" xmlns="http://www.w3.org/2000/svg">
    <path d="M20.2465 19.0816C21.0259 19.0816 21.7734 19.3912 22.3245 19.9424C22.8756 20.4935 23.1853 21.241 23.1853 22.0204V23.9822L23.1748 24.1232C22.7699 26.9014 20.2752 28.2362 16.0891 28.2362C11.9187 28.2362 9.38347 26.917 8.83621 24.1716L8.81792 23.9796V22.0204C8.81792 21.241 9.12754 20.4935 9.67867 19.9424C10.2298 19.3912 10.9773 19.0816 11.7567 19.0816H20.2465ZM20.2465 21.0408H11.7567C11.4969 21.0408 11.2477 21.144 11.064 21.3277C10.8803 21.5114 10.7771 21.7606 10.7771 22.0204V23.8751C11.1428 25.4424 12.8016 26.277 16.0891 26.277C19.3753 26.277 20.9609 25.4529 21.2261 23.9051V22.0204C21.2261 21.7606 21.1229 21.5114 20.9392 21.3277C20.7555 21.144 20.5063 21.0408 20.2465 21.0408ZM21.5448 11.2436L28.7363 11.2449C29.5157 11.2449 30.2632 11.5545 30.8143 12.1056C31.3654 12.6568 31.6751 13.4042 31.6751 14.1837V16.1455L31.6646 16.2865C31.2597 19.0646 28.765 20.3995 24.5789 20.3995L24.1675 20.3956C23.7818 19.4658 23.0788 18.7031 22.1835 18.2431C22.8561 18.3737 23.6529 18.4403 24.5789 18.4403C27.8651 18.4403 29.4507 17.6161 29.7159 16.0684V14.1837C29.7159 13.9239 29.6127 13.6747 29.429 13.491C29.2453 13.3073 28.9961 13.2041 28.7363 13.2041H21.8791C21.8791 12.517 21.7616 11.8561 21.5448 11.2436ZM3.2669 11.2449L10.4584 11.2436C10.274 11.7653 10.1645 12.3106 10.1332 12.8632L10.124 13.2041H3.2669C3.0071 13.2041 2.75793 13.3073 2.57422 13.491C2.39052 13.6747 2.28731 13.9239 2.28731 14.1837V16.0383C2.65302 17.6057 4.3118 18.4403 7.59931 18.4403C8.41172 18.4403 9.11964 18.3894 9.7309 18.2901C8.87599 18.7547 8.20616 19.4983 7.8331 20.3969L7.598 20.3995C3.42886 20.3995 0.893676 19.0803 0.346411 16.3348L0.328125 16.1428V14.1837C0.328125 13.4042 0.637745 12.6568 1.18887 12.1056C1.74 11.5545 2.48749 11.2449 3.2669 11.2449ZM16.0016 8.63263C17.214 8.63263 18.3768 9.11427 19.2341 9.97157C20.0914 10.8289 20.573 11.9916 20.573 13.2041C20.573 14.4165 20.0914 15.5792 19.2341 16.4366C18.3768 17.2939 17.214 17.7755 16.0016 17.7755C14.7892 17.7755 13.6264 17.2939 12.7691 16.4366C11.9118 15.5792 11.4302 14.4165 11.4302 13.2041C11.4302 11.9916 11.9118 10.8289 12.7691 9.97157C13.6264 9.11427 14.7892 8.63263 16.0016 8.63263ZM16.0016 10.5918C15.3088 10.5918 14.6443 10.867 14.1545 11.3569C13.6646 11.8468 13.3893 12.5113 13.3893 13.2041C13.3893 13.8969 13.6646 14.5613 14.1545 15.0512C14.6443 15.5411 15.3088 15.8163 16.0016 15.8163C16.6944 15.8163 17.3588 15.5411 17.8487 15.0512C18.3386 14.5613 18.6138 13.8969 18.6138 13.2041C18.6138 12.5113 18.3386 11.8468 17.8487 11.3569C17.3588 10.867 16.6944 10.5918 16.0016 10.5918ZM24.4914 0.795898C25.7038 0.795898 26.8666 1.27753 27.7239 2.13484C28.5812 2.99215 29.0628 4.15491 29.0628 5.36733C29.0628 6.57975 28.5812 7.74251 27.7239 8.59982C26.8666 9.45712 25.7038 9.93876 24.4914 9.93876C23.279 9.93876 22.1162 9.45712 21.2589 8.59982C20.4016 7.74251 19.92 6.57975 19.92 5.36733C19.92 4.15491 20.4016 2.99215 21.2589 2.13484C22.1162 1.27753 23.279 0.795898 24.4914 0.795898ZM7.5118 0.795898C8.72422 0.795898 9.88698 1.27753 10.7443 2.13484C11.6016 2.99215 12.0832 4.15491 12.0832 5.36733C12.0832 6.57975 11.6016 7.74251 10.7443 8.59982C9.88698 9.45712 8.72422 9.93876 7.5118 9.93876C6.29938 9.93876 5.13662 9.45712 4.27931 8.59982C3.422 7.74251 2.94037 6.57975 2.94037 5.36733C2.94037 4.15491 3.422 2.99215 4.27931 2.13484C5.13662 1.27753 6.29938 0.795898 7.5118 0.795898ZM24.4914 2.75508C23.7986 2.75508 23.1341 3.0303 22.6443 3.52019C22.1544 4.01008 21.8791 4.67452 21.8791 5.36733C21.8791 6.06014 22.1544 6.72457 22.6443 7.21446C23.1341 7.70435 23.7986 7.97957 24.4914 7.97957C25.1842 7.97957 25.8486 7.70435 26.3385 7.21446C26.8284 6.72457 27.1036 6.06014 27.1036 5.36733C27.1036 4.67452 26.8284 4.01008 26.3385 3.52019C25.8486 3.0303 25.1842 2.75508 24.4914 2.75508ZM7.5118 2.75508C6.81899 2.75508 6.15455 3.0303 5.66466 3.52019C5.17477 4.01008 4.89955 4.67452 4.89955 5.36733C4.89955 6.06014 5.17477 6.72457 5.66466 7.21446C6.15455 7.70435 6.81899 7.97957 7.5118 7.97957C8.20461 7.97957 8.86904 7.70435 9.35893 7.21446C9.84882 6.72457 10.124 6.06014 10.124 5.36733C10.124 4.67452 9.84882 4.01008 9.35893 3.52019C8.86904 3.0303 8.20461 2.75508 7.5118 2.75508Z" fill="#FF9900"/>
</svg>
