<svg width="16" height="16" viewBox="0 0 16 16" fill="none" xmlns="http://www.w3.org/2000/svg">
    <path d="M10.3476 5.35829L10.234 5.11715L8.08989 0.565202L8.08969 0.564778C8.07658 0.536886 8.05729 0.519036 8.03927 0.509754L8.03868 0.50945C8.0171 0.49829 7.99572 0.497273 7.97401 0.504958C7.95187 0.512799 7.92666 0.531201 7.90943 0.566821C7.90931 0.567071 7.90918 0.567322 7.90906 0.567574L5.76603 5.11715L5.65245 5.35829L5.38893 5.39839L0.592441 6.12836L0.591189 6.12855C0.575527 6.1309 0.556018 6.13919 0.537208 6.15901C0.515163 6.18308 0.499477 6.21985 0.500013 6.26224C0.500554 6.30499 0.517427 6.34123 0.540007 6.36428L0.540038 6.36431L4.01036 9.90735L4.18752 10.0882L4.14658 10.3381L3.3267 15.3411L3.32659 15.3417C3.32187 15.3703 3.32505 15.3994 3.33497 15.425C3.34484 15.4504 3.36009 15.4693 3.37601 15.4814L3.07333 15.8793L3.37601 15.4814C3.3917 15.4933 3.40782 15.4987 3.42233 15.4998C3.43677 15.5009 3.45237 15.4979 3.4679 15.4893L3.46869 15.4889L7.75889 13.1268L8.00004 12.9941L8.24119 13.1268L12.5314 15.4889L12.5337 15.4901C12.5484 15.4983 12.5665 15.5015 12.5841 15.4983L12.5849 15.4981C12.6265 15.4906 12.6888 15.4349 12.6734 15.3414L12.6734 15.3411L11.8535 10.3381L11.8126 10.0882L11.9897 9.90735L10.3476 5.35829ZM10.3476 5.35829L10.6111 5.39839L15.406 6.12811C15.4062 6.12814 15.4063 6.12816 15.4065 6.12819C15.4513 6.13547 15.5114 6.19036 15.4983 6.27928L15.4982 6.27927L15.4975 6.28457C15.493 6.31734 15.4787 6.34508 15.4594 6.36497L10.3476 5.35829Z" stroke="#9F9FA2"/>
</svg>
