<svg width="16" height="16" viewBox="0 0 16 16" fill="none" xmlns="http://www.w3.org/2000/svg">
    <path d="M10.0079 5.22368L10.1783 5.58539L10.5735 5.64555L15.1343 6.33964L11.8111 9.73242L11.5454 10.0037L11.6068 10.3785L12.3842 15.1225L8.36176 12.9078L8.00004 12.7087L7.63832 12.9078L3.61586 15.1225L4.39329 10.3785L4.45471 10.0037L4.18896 9.73242L0.865816 6.33964L5.42654 5.64555L5.82182 5.58539L5.9922 5.22368L8.00004 0.961128L10.0079 5.22368ZM7.86372 0.671735C7.86366 0.671602 7.8636 0.671468 7.86353 0.671335L7.86372 0.671735ZM3.41617 15.3935L3.43068 15.3879L3.41617 15.3935Z" stroke="#0066FF" stroke-width="1.5"/>
</svg>
