<svg width="14" height="14" viewBox="0 0 14 14" fill="none" xmlns="http://www.w3.org/2000/svg">
<path d="M10.2103 0H3.78967C1.70001 0 0 1.70001 0 3.78967V10.2104C0 12.3 1.70001 14 3.78967 14H10.2104C12.3 14 14 12.3 14 10.2104V3.78967C14 1.70001 12.3 0 10.2103 0V0ZM7 10.828C4.88919 10.828 3.17198 9.11081 3.17198 7C3.17198 4.88919 4.88919 3.17198 7 3.17198C9.11081 3.17198 10.828 4.88919 10.828 7C10.828 9.11081 9.11081 10.828 7 10.828ZM10.9196 4.07475C10.2958 4.07475 9.78842 3.5674 9.78842 2.94362C9.78842 2.31984 10.2958 1.81238 10.9196 1.81238C11.5433 1.81238 12.0508 2.31984 12.0508 2.94362C12.0508 3.5674 11.5433 4.07475 10.9196 4.07475Z" fill="#6C6C70"/>
<path d="M6.99995 3.99316C5.34181 3.99316 3.99268 5.34219 3.99268 7.00044C3.99268 8.65858 5.34181 10.0077 6.99995 10.0077C8.6582 10.0077 10.0072 8.65858 10.0072 7.00044C10.0072 5.34219 8.6582 3.99316 6.99995 3.99316Z" fill="#6C6C70"/>
</svg>
