<svg width="11" height="14" viewBox="0 0 11 14" fill="none" xmlns="http://www.w3.org/2000/svg">
<path d="M1.14341 7.51357C0.734745 8.21649 1.19874 8.5525 2.25741 9.1265C3.15741 9.61301 4.40074 9.79093 5.19941 9.86209C4.87208 10.1374 6.37208 8.87508 2.05208 12.511C1.13608 13.2793 2.61074 14.5119 3.52608 13.76L6.00408 11.6687C6.95274 12.4673 7.86208 13.2326 8.48208 13.7629C9.39808 14.5177 10.8721 13.2956 9.96608 12.514C9.89808 12.4574 6.60808 9.69584 6.80874 9.86501C7.61741 9.79384 8.84208 9.60543 9.73141 9.12942L9.73074 9.12884C10.7894 8.55191 11.2534 8.21649 10.8507 7.51357C10.6074 7.11456 9.95141 6.78089 9.07808 7.35781C9.07808 7.35781 7.89875 8.14824 5.99675 8.14824C4.09408 8.14824 2.91541 7.35781 2.91541 7.35781C2.04274 6.77797 1.38408 7.11456 1.14341 7.51357Z" fill="#6C6C70"/>
<path d="M5.99538 7.08293C8.31405 7.08293 10.2074 5.49741 10.2074 3.54555C10.2074 1.58552 8.31405 0 5.99538 0C3.67605 0 1.78271 1.58552 1.78271 3.54555C1.78271 5.49741 3.67605 7.08293 5.99538 7.08293ZM5.99538 1.79611C7.13472 1.79611 8.06405 2.57837 8.06405 3.54555C8.06405 4.50456 7.13472 5.28682 5.99538 5.28682C4.85605 5.28682 3.92671 4.50456 3.92671 3.54555C3.92605 2.57779 4.85538 1.79611 5.99538 1.79611Z" fill="#6C6C70"/>
</svg>
