<svg width="20" height="14" viewBox="0 0 20 14" fill="none" xmlns="http://www.w3.org/2000/svg">
<path d="M19.5834 2.19067C19.353 1.33405 18.6776 0.658786 17.8212 0.428126C16.2564 0 9.99749 0 9.99749 0C9.99749 0 3.73878 0 2.17407 0.411894C1.33405 0.64231 0.642188 1.33417 0.411772 2.19067C0 3.75525 0 7 0 7C0 7 0 10.2611 0.411772 11.8093C0.642432 12.6658 1.31757 13.3411 2.17419 13.5718C3.75525 14 9.99773 14 9.99773 14C9.99773 14 16.2564 14 17.8212 13.5881C18.6778 13.3576 19.353 12.6823 19.5837 11.8258C19.9953 10.2611 19.9953 7.01648 19.9953 7.01648C19.9953 7.01648 20.0118 3.75525 19.5834 2.19067ZM8.00478 9.99761V4.00239L13.2094 7L8.00478 9.99761Z" fill="#6C6C70"/>
</svg>
