<svg width="16" height="16" viewBox="0 0 16 16" fill="none" xmlns="http://www.w3.org/2000/svg">
    <path d="M2.83328 15.2602L3.65316 10.2572L0.182838 6.71418C0.0679221 6.59688 0.00217854 6.4366 5.31712e-05 6.26856C-0.0020722 6.10053 0.0595945 5.93848 0.171503 5.81803C0.26407 5.71912 0.384974 5.65384 0.517213 5.63406L2.83328 15.2602ZM2.83328 15.2602C2.81405 15.3766 2.82635 15.4963 2.86878 15.6057M2.83328 15.2602L2.86878 15.6057M2.86878 15.6057C2.91121 15.7151 2.98207 15.8099 3.07333 15.8793M2.86878 15.6057L3.07333 15.8793M3.07333 15.8793C3.16459 15.9488 3.27259 15.99 3.38509 15.9984M3.07333 15.8793L3.38509 15.9984M3.38509 15.9984C3.4976 16.0068 3.6101 15.982 3.70983 15.9269M3.38509 15.9984L3.70983 15.9269M3.70983 15.9269L8.00004 13.5648L3.70983 15.9269ZM10.234 5.11715L10.3476 5.35829L10.6111 5.39839L15.406 6.12811C15.4061 6.12813 15.4063 6.12815 15.4064 6.12818C15.4512 6.13542 15.5114 6.19032 15.4983 6.27928L15.4982 6.27927L15.4975 6.28457C15.493 6.31731 15.4787 6.34504 15.4594 6.36492C15.4593 6.36503 15.4592 6.36513 15.4591 6.36523L11.9897 9.90735L11.8126 10.0882L11.8535 10.3381L12.6734 15.3411L12.6734 15.3414C12.6888 15.4349 12.6265 15.4906 12.5849 15.4981L12.5841 15.4983C12.5665 15.5015 12.5484 15.4983 12.5337 15.4901L12.5314 15.4889L8.24119 13.1268L8.00004 12.9941L7.75889 13.1268L3.46869 15.4889L3.4679 15.4893C3.45237 15.4979 3.43677 15.5009 3.42232 15.4998C3.40782 15.4987 3.3917 15.4933 3.37601 15.4814C3.36009 15.4693 3.34484 15.4504 3.33497 15.425C3.32505 15.3994 3.32187 15.3703 3.32659 15.3417L3.3267 15.3411L4.14658 10.3381L4.18752 10.0882L4.01036 9.90735L0.540038 6.36431L0.540006 6.36428C0.517427 6.34123 0.500554 6.30499 0.500013 6.26224C0.499477 6.21986 0.51516 6.18309 0.537202 6.15901C0.556014 6.13919 0.575525 6.1309 0.591188 6.12855L0.592441 6.12836L5.38893 5.39839L5.65245 5.35829L5.76603 5.11715L7.90906 0.567574C7.90919 0.567309 7.90932 0.567044 7.90945 0.56678C7.92668 0.531187 7.95188 0.512796 7.97401 0.504958C7.99572 0.497273 8.01709 0.49829 8.03868 0.50945L8.03927 0.509754C8.05729 0.519036 8.07658 0.536887 8.08969 0.564777L8.08989 0.565202L10.234 5.11715Z" stroke="#9F9FA2"/>
</svg>
