<svg width="24" height="24" viewBox="0 0 24 24" fill="none" xmlns="http://www.w3.org/2000/svg">
<path d="M20.08 11.201C19.76 11.201 19.36 11.041 19.12 10.801C18.4 10.161 17.6 9.60096 16.64 9.12095C16.24 8.96095 16 8.40094 16 7.84093V5.52089C14.56 5.04089 13.2 4.80088 12 4.80088C10.8 4.80088 9.52 5.04089 8 5.52089L8.08 7.84093C8.08 8.32094 7.92 8.88095 7.44 9.12095C6.64 9.52096 5.44 10.081 4.72 10.801C4.24 11.281 3.36 11.281 2.8 10.801L0.4 8.32094C0.16 8.08093 0 7.76093 0 7.36092C0 6.96092 0.16 6.64091 0.4 6.40091C3.6 3.36086 7.84 1.60083 12 1.60083C16.08 1.60083 20.32 3.36086 23.6 6.48091C23.84 6.80091 24 7.12092 24 7.44092C24 7.76093 23.84 8.16094 23.6 8.40094L21.04 10.801C20.8 11.041 20.4 11.201 20.08 11.201ZM12 4.00087C13.36 4.00087 14.88 4.24087 16.56 4.80088C16.72 4.88088 16.8 5.04089 16.8 5.20089V7.84093C16.8 8.16094 16.88 8.40094 17.04 8.40094C18 8.88095 18.88 9.52096 19.68 10.241C19.92 10.481 20.24 10.481 20.48 10.241L23.04 7.84093C23.12 7.76093 23.2 7.60093 23.2 7.52093C23.2 7.44092 23.12 7.20092 23.04 7.12092C19.92 4.08087 15.84 2.40084 12 2.40084C8.08 2.40084 4 4.08087 0.96 6.96092C0.88 7.04092 0.8 7.20092 0.8 7.36092C0.8 7.52093 0.88 7.68093 0.96 7.76093L3.36 10.241C3.52 10.401 3.92 10.401 4.16 10.241C4.96 9.44096 6.16 8.88095 7.04 8.40094C7.2 8.32094 7.28 8.08093 7.28 7.84093L7.2 5.20089C7.2 5.04089 7.28 4.88088 7.44 4.80088C9.2 4.24087 10.64 4.00087 12 4.00087Z" fill="#000033"/>
<path d="M21.1996 22.4003H1.99961C1.91961 22.4003 1.75961 22.3202 1.67961 22.2402C1.59961 22.1602 1.59961 22.0802 1.59961 21.9202L1.99961 18.3202C1.99961 17.5202 2.15961 16.7202 2.55961 15.9201L3.99961 13.5201C4.07961 12.2401 5.11961 11.2001 6.39961 11.2001H6.87961C7.11961 11.2001 7.27961 11.3601 7.27961 11.6001C7.27961 11.8401 7.11961 12.0001 6.87961 12.0001H6.39961C5.51961 12.0001 4.79961 12.7201 4.79961 13.6001C4.79961 13.6801 4.79961 13.7601 4.71961 13.8401L3.27961 16.4002C2.95961 17.0402 2.79961 17.7602 2.79961 18.4002L2.47961 21.6002H20.7996V18.4002C20.7996 17.6802 20.6396 16.9602 20.3196 16.3202L18.9596 13.7601C18.9596 13.6801 18.8796 13.6001 18.8796 13.6001C18.8796 12.7201 18.1596 12.0001 17.2796 12.0001H16.7996C16.5596 12.0001 16.3996 11.8401 16.3996 11.6001C16.3996 11.3601 16.5596 11.2001 16.7996 11.2001H17.2796C18.5596 11.2001 19.5996 12.2401 19.6796 13.5201L21.0396 16.0001C21.4396 16.7202 21.5996 17.6002 21.5996 18.4002V22.0002C21.5996 22.2402 21.4396 22.4003 21.1996 22.4003Z" fill="#000033"/>
<path d="M12.0004 15.1996C11.1204 15.1996 10.4004 14.4796 10.4004 13.5995C10.4004 12.7195 11.1204 11.9995 12.0004 11.9995C12.8804 11.9995 13.6004 12.7195 13.6004 13.5995C13.6004 14.4796 12.8804 15.1996 12.0004 15.1996ZM12.0004 12.7995C11.5204 12.7995 11.2004 13.1195 11.2004 13.5995C11.2004 14.0795 11.5204 14.3996 12.0004 14.3996C12.4804 14.3996 12.8004 14.0795 12.8004 13.5995C12.8004 13.1195 12.4804 12.7995 12.0004 12.7995Z" fill="#000033"/>
<path d="M12.0004 19.2005C8.88039 19.2005 6.40039 16.7205 6.40039 13.6005C6.40039 10.4804 8.88039 8.00037 12.0004 8.00037C15.1204 8.00037 17.6004 10.4804 17.6004 13.6005C17.6004 15.2805 16.8804 16.8805 15.5204 17.9205C15.4404 18.0005 15.3604 18.0005 15.3604 18.0005C14.8804 18.0805 14.4004 18.0005 14.0004 17.9205C14.0804 18.0005 14.1604 18.0805 14.2404 18.0805C14.3204 18.1605 14.4004 18.3205 14.4004 18.4805C14.4004 18.6405 14.3204 18.7205 14.1604 18.8005C13.3604 19.0405 12.7204 19.2005 12.0004 19.2005ZM12.0004 8.80038C9.36039 8.80038 7.20039 10.9604 7.20039 13.6005C7.20039 16.2405 9.36039 18.4005 12.0004 18.4005C12.4004 18.4005 12.8004 18.3205 13.1204 18.2405C12.8804 17.9205 12.8004 17.6005 12.8004 17.2005C12.8004 17.0405 12.8804 16.9605 12.9604 16.8805C13.1204 16.8005 13.2004 16.8005 13.3604 16.8805C13.9204 17.2005 14.4804 17.3605 15.0404 17.2805C16.0804 16.4005 16.7204 15.0405 16.7204 13.6005C16.8004 10.9604 14.6404 8.80038 12.0004 8.80038Z" fill="#000033"/>
<path d="M17.2008 20.0002C16.7208 19.9202 12.8008 19.4402 12.8008 17.2002C12.8008 17.0402 12.8808 16.9602 13.0408 16.8802C13.2008 16.8002 13.2808 16.8002 13.4408 16.8802C14.5608 17.5202 15.3608 17.2802 16.1608 17.0402C16.5608 16.9602 16.8808 16.8002 17.2008 16.8002C17.4408 16.8002 17.6008 16.9602 17.6008 17.2002V19.6002C17.6008 19.6802 17.5208 19.8402 17.4408 19.9202C17.3608 20.0002 17.2808 20.0002 17.2008 20.0002ZM13.9208 17.9202C14.5608 18.5602 15.9208 18.9602 16.8008 19.1202V17.6802C16.6408 17.6802 16.5608 17.7602 16.4008 17.8402C15.7608 18.0002 14.9608 18.2402 13.9208 17.9202Z" fill="#000033"/>
</svg>
