<svg width="24" height="24" viewBox="0 0 24 24" fill="none" xmlns="http://www.w3.org/2000/svg">
<path d="M22 13.9998H2C0.88 13.9998 0 13.1198 0 11.9998V3.99967C0 2.87965 0.88 1.99963 2 1.99963H22C23.12 1.99963 24 2.87965 24 3.99967V11.9998C24 13.1198 23.12 13.9998 22 13.9998ZM2 2.79965C1.36 2.79965 0.8 3.35966 0.8 3.99967V11.9998C0.8 12.6398 1.36 13.1998 2 13.1998H22C22.64 13.1998 23.2 12.6398 23.2 11.9998V3.99967C23.2 3.35966 22.64 2.79965 22 2.79965H2Z" fill="#000033"/>
<path d="M23.2 9.20101H0.4C0.16 9.20101 0 9.04101 0 8.80101C0 8.561 0.16 8.401 0.4 8.401H23.2C23.44 8.401 23.6 8.561 23.6 8.80101C23.6 9.04101 23.44 9.20101 23.2 9.20101ZM21.2 11.6011H20.4C20.16 11.6011 20 11.4411 20 11.201C20 10.961 20.16 10.801 20.4 10.801H21.2C21.44 10.801 21.6 10.961 21.6 11.201C21.6 11.4411 21.44 11.6011 21.2 11.6011ZM18 11.6011H17.2C16.96 11.6011 16.8 11.4411 16.8 11.201C16.8 10.961 16.96 10.801 17.2 10.801H18C18.24 10.801 18.4 10.961 18.4 11.201C18.4 11.4411 18.24 11.6011 18 11.6011ZM3.6 22.0012C3.52 22.0012 3.36 22.0012 3.28 21.9212C3.12 21.7612 3.12 21.5212 3.28 21.3612C4 20.6412 3.68 19.8412 3.2 18.4812C2.8 17.2811 2.24 15.9211 3.28 14.8811C3.44 14.7211 3.68 14.7211 3.84 14.8811C4 15.0411 4 15.2811 3.84 15.4411C3.2 16.0811 3.44 16.8811 3.92 18.1612C4.4 19.3612 4.88 20.8012 3.84 21.8412C3.84 22.0012 3.68 22.0012 3.6 22.0012ZM7.52 22.0012C7.44 22.0012 7.28 22.0012 7.2 21.9212C7.04 21.7612 7.04 21.5212 7.2 21.3612C7.84 20.7212 7.6 19.8412 7.12 18.5612C6.72 17.3611 6.16 16.0011 7.2 14.9611C7.36 14.8011 7.6 14.8011 7.76 14.9611C7.92 15.1211 7.92 15.3611 7.76 15.5211C7.12 16.1611 7.36 16.9611 7.84 18.2412C8.32 19.4412 8.8 20.8812 7.76 21.9212C7.68 22.0012 7.6 22.0012 7.52 22.0012ZM11.36 22.0012C11.28 22.0012 11.12 22.0012 11.04 21.9212C10.88 21.7612 10.88 21.5212 11.04 21.3612C11.68 20.7212 11.44 19.8412 10.96 18.5612C10.56 17.3611 10 16.0011 11.04 14.9611C11.2 14.8011 11.44 14.8011 11.6 14.9611C11.76 15.1211 11.76 15.3611 11.6 15.5211C10.96 16.1611 11.2 16.9611 11.68 18.2412C12.16 19.4412 12.64 20.8812 11.6 21.9212C11.6 22.0012 11.52 22.0012 11.36 22.0012ZM18 21.2012C17.76 21.2012 17.6 21.0412 17.6 20.8012V15.2011C17.6 14.9611 17.76 14.8011 18 14.8011C18.24 14.8011 18.4 14.9611 18.4 15.2011V20.8012C18.4 21.0412 18.24 21.2012 18 21.2012Z" fill="#000033"/>
<path d="M15.6003 19.8413C15.4403 19.8413 15.3603 19.7613 15.2803 19.6013C15.2003 19.4413 15.2003 19.2013 15.4403 19.0413L20.3203 16.2412C20.4803 16.1612 20.7203 16.1612 20.8803 16.4012C20.9603 16.5612 20.9603 16.8012 20.7203 16.9612L15.8403 19.7613C15.6803 19.7613 15.6803 19.8413 15.6003 19.8413Z" fill="#000033"/>
<path d="M20.3204 19.9996C20.2404 19.9996 20.1604 19.9996 20.0804 19.9196L15.5204 16.7195C15.3604 16.5595 15.2804 16.3195 15.4404 16.1595C15.6004 15.9995 15.8404 15.9195 16.0004 16.0795L20.5604 19.2796C20.7204 19.4396 20.8004 19.6796 20.6404 19.8396C20.5604 19.9196 20.4004 19.9996 20.3204 19.9996ZM14.8004 11.5995H2.80039C2.56039 11.5995 2.40039 11.4394 2.40039 11.1994C2.40039 10.9594 2.56039 10.7994 2.80039 10.7994H14.8004C15.0404 10.7994 15.2004 10.9594 15.2004 11.1994C15.2004 11.4394 15.0404 11.5995 14.8004 11.5995Z" fill="#000033"/>
</svg>
