<svg width="24" height="24" viewBox="0 0 24 24" fill="none" xmlns="http://www.w3.org/2000/svg">
<path d="M21.6 23.9999H2.4C1.04 23.9999 0 22.9599 0 21.5999V20.3999C0 20.1599 0.16 19.9999 0.4 19.9999H23.6C23.84 19.9999 24 20.1599 24 20.3999V21.5999C24 22.9599 22.96 23.9999 21.6 23.9999ZM0.8 20.7999V21.5999C0.8 22.4799 1.52 23.1999 2.4 23.1999H21.6C22.48 23.1999 23.2 22.4799 23.2 21.5999V20.7999H0.8Z" fill="#000033"/>
<path d="M21.1999 20.8003C20.9599 20.8003 20.7999 20.6403 20.7999 20.4003V3.28005C20.8799 2.64004 20.7199 2.00003 20.3199 1.60003C19.4399 0.64001 17.8399 0.64001 16.8799 1.52002L15.1199 3.44006C14.9599 3.60006 14.7199 3.60006 14.5599 3.44006C14.3999 3.28005 14.3999 3.04005 14.5599 2.88005L16.3199 0.880014C16.8799 0.320005 17.6799 0 18.5599 0C19.4399 0 20.3199 0.400007 20.8799 1.04002C21.4399 1.68003 21.6799 2.48004 21.5999 3.36005V20.4803C21.5999 20.6403 21.4399 20.8003 21.1999 20.8003Z" fill="#000033"/>
<path d="M15.6007 8.00094C15.5207 8.00094 15.3607 7.92093 15.2807 7.92093L9.6807 2.32084C9.6007 2.16084 9.6007 2.00084 9.6007 1.84083C9.6007 1.68083 9.8407 1.60083 10.0007 1.60083H13.2007C13.2807 1.60083 13.4407 1.68083 13.5207 1.68083L15.9207 4.08087C15.9207 4.16087 16.0007 4.32087 16.0007 4.40088V7.60093C16.0007 7.76093 15.9207 7.92093 15.7607 8.00094H15.6007ZM10.9607 2.40084L15.2007 6.64091V4.56088L13.0407 2.40084H10.9607ZM7.6007 6.40091C7.5207 6.40091 7.3607 6.40091 7.2807 6.32091C7.2007 6.16091 7.2007 5.8409 7.2807 5.6809L8.8807 4.08087C9.0407 3.92087 9.2807 3.92087 9.4407 4.08087C9.6007 4.24087 9.6007 4.48088 9.4407 4.64088L7.8407 6.24091C7.8407 6.40091 7.6807 6.40091 7.6007 6.40091ZM9.6007 8.40094C9.5207 8.40094 9.3607 8.40094 9.2807 8.32094C9.1207 8.16094 9.1207 7.92093 9.2807 7.76093L10.8807 6.1609C11.0407 6.0009 11.2807 6.0009 11.4407 6.1609C11.6007 6.32091 11.6007 6.56091 11.4407 6.72091L9.8407 8.32094C9.8407 8.40094 9.6807 8.40094 9.6007 8.40094ZM11.6007 10.401C11.5207 10.401 11.3607 10.401 11.2807 10.321C11.1207 10.161 11.1207 9.92097 11.2807 9.76096L12.8807 8.16094C13.0407 8.00094 13.2807 8.00094 13.4407 8.16094C13.6007 8.32094 13.6007 8.56094 13.4407 8.72095L11.8407 10.321C11.8407 10.401 11.6807 10.401 11.6007 10.401Z" fill="#000033"/>
</svg>
