<svg width="24" height="24" viewBox="0 0 24 24" fill="none" xmlns="http://www.w3.org/2000/svg">
<g clip-path="url(#clip0)">
<path d="M22.4004 21.6008H4.80039C4.72039 21.6008 4.56039 21.5208 4.48039 21.4408C4.40039 21.3608 4.40039 21.2808 4.40039 21.1208L5.20039 10.7206C5.20039 10.5606 5.36039 10.4006 5.60039 10.4006H21.6004C21.8404 10.4006 22.0004 10.5606 22.0004 10.8006L22.8004 21.2008C22.8004 21.2808 22.8004 21.4408 22.7204 21.5208C22.6404 21.5208 22.4804 21.6008 22.4004 21.6008ZM5.20039 20.8008H21.9204L21.2004 11.2006H6.00039L5.20039 20.8008Z" fill="#000033"/>
<path d="M6.79922 21.6006C6.79922 21.6006 6.71922 21.6006 6.79922 21.6006C6.47922 21.5206 6.39922 21.3606 6.39922 21.1206L7.59922 13.9205C7.59922 13.6805 7.83922 13.5205 8.07922 13.6005C8.31922 13.6005 8.47922 13.8405 8.39922 14.0805L7.19922 21.2806C7.19922 21.4406 6.95922 21.6006 6.79922 21.6006ZM9.99922 21.6006C9.75922 21.6006 9.59922 21.3606 9.59922 21.2006L9.99922 14.0005C9.99922 13.7605 10.2392 13.6005 10.3992 13.6005C10.6392 13.6005 10.7992 13.8405 10.7992 14.0005L10.3992 21.2006C10.3992 21.4406 10.2392 21.6006 9.99922 21.6006ZM13.5992 21.6006C13.3592 21.6006 13.1992 21.4406 13.1992 21.2006V14.0005C13.1992 13.7605 13.3592 13.6005 13.5992 13.6005C13.8392 13.6005 13.9992 13.7605 13.9992 14.0005V21.2006C13.9992 21.4406 13.8392 21.6006 13.5992 21.6006ZM19.5992 11.2004H7.59922C7.43922 11.2004 7.27922 11.1204 7.27922 10.9604L6.07922 8.56038C5.99922 8.40037 5.99922 8.32037 6.07922 8.16037C6.15922 8.08037 6.23922 8.00037 6.39922 8.00037H20.7992C20.9592 8.00037 21.0392 8.08037 21.1192 8.16037C21.1992 8.24037 21.1992 8.40037 21.1192 8.56038L19.9192 10.9604C19.9192 11.1204 19.7592 11.2004 19.5992 11.2004ZM7.83922 10.4004H19.3592L20.1592 8.80038H7.03922L7.83922 10.4004ZM5.19922 13.6005H3.99922C3.75922 13.6005 3.59922 13.4405 3.59922 13.2004V10.4004C3.59922 9.52039 2.47922 8.80038 1.59922 8.80038C1.35922 8.80038 1.19922 8.64038 1.19922 8.40037C1.19922 8.16037 1.35922 8.00037 1.59922 8.00037C2.87922 8.00037 4.39922 9.04038 4.39922 10.4004V12.8004H5.19922C5.43922 12.8004 5.59922 12.9604 5.59922 13.2004C5.59922 13.4405 5.43922 13.6005 5.19922 13.6005Z" fill="#000033"/>
<path d="M20.0008 8.80095H7.20078C6.96078 8.80095 6.80078 8.64094 6.80078 8.40094C6.80078 4.64088 9.84078 1.60083 13.6008 1.60083C17.3608 1.60083 20.4008 4.64088 20.4008 8.40094C20.4008 8.64094 20.2408 8.80095 20.0008 8.80095ZM7.60078 8.00093H19.6008C19.3608 4.88088 16.8008 2.40084 13.6008 2.40084C10.4008 2.40084 7.84078 4.88088 7.60078 8.00093Z" fill="#000033"/>
<path d="M15.2002 2.40004C14.9602 2.40004 14.8002 2.24004 14.8002 2.00003C14.8002 1.36002 14.2402 0.800013 13.6002 0.800013C12.9602 0.800013 12.4002 1.36002 12.4002 2.00003C12.4002 2.24004 12.2402 2.40004 12.0002 2.40004C11.7602 2.40004 11.6002 2.24004 11.6002 2.00003C11.6002 0.880014 12.4802 0 13.6002 0C14.7202 0 15.6002 0.880014 15.6002 2.00003C15.6002 2.24004 15.4402 2.40004 15.2002 2.40004ZM20.4002 21.6003C20.2402 21.6003 20.0002 21.4403 20.0002 21.2803L18.8002 14.0802C18.8002 13.8402 18.8802 13.6802 19.1202 13.6002C19.3602 13.5202 19.5202 13.6802 19.6002 13.9202L20.8002 21.1203C20.8002 21.3603 20.7202 21.5203 20.4002 21.6003C20.4802 21.6003 20.4002 21.6003 20.4002 21.6003ZM17.2002 21.6003C16.9602 21.6003 16.8002 21.4403 16.8002 21.2003L16.4002 14.0002C16.4002 13.7602 16.5602 13.6002 16.8002 13.6002C17.0402 13.6002 17.2002 13.7602 17.2002 14.0002L17.6002 21.2003C17.6002 21.3603 17.4402 21.6003 17.2002 21.6003ZM6.8002 24.0004C5.9202 24.0004 5.2002 23.2804 5.2002 22.4004C5.2002 21.5203 5.9202 20.8003 6.8002 20.8003C7.6802 20.8003 8.4002 21.5203 8.4002 22.4004C8.4002 23.2804 7.6802 24.0004 6.8002 24.0004ZM6.8002 21.6003C6.3202 21.6003 6.0002 21.9204 6.0002 22.4004C6.0002 22.8804 6.3202 23.2004 6.8002 23.2004C7.2802 23.2004 7.6002 22.8804 7.6002 22.4004C7.6002 21.9204 7.2802 21.6003 6.8002 21.6003Z" fill="#000033"/>
<path d="M20.4008 24.0013C19.5208 24.0013 18.8008 23.2813 18.8008 22.4013C18.8008 21.5213 19.5208 20.8013 20.4008 20.8013C21.2808 20.8013 22.0008 21.5213 22.0008 22.4013C22.0008 23.2813 21.2808 24.0013 20.4008 24.0013ZM20.4008 21.6013C19.9208 21.6013 19.6008 21.9213 19.6008 22.4013C19.6008 22.8813 19.9208 23.2013 20.4008 23.2013C20.8808 23.2013 21.2008 22.8813 21.2008 22.4013C21.2008 21.9213 20.8808 21.6013 20.4008 21.6013Z" fill="#000033"/>
</g>
<defs>
<clipPath id="clip0">
<rect width="24" height="24.0004" fill="white"/>
</clipPath>
</defs>
</svg>
