<svg width="24" height="24" viewBox="0 0 24 24" fill="none" xmlns="http://www.w3.org/2000/svg">
<path d="M15.1999 24.0004H2.3999C1.2799 24.0004 0.399902 23.1204 0.399902 22.0004V2.00003C0.399902 0.880015 1.2799 0 2.3999 0H15.1999C16.3199 0 17.1999 0.880015 17.1999 2.00003V22.0004C17.1999 23.1204 16.3199 24.0004 15.1999 24.0004ZM2.3999 0.800013C1.7599 0.800013 1.1999 1.36002 1.1999 2.00003V22.0004C1.1999 22.6404 1.7599 23.2004 2.3999 23.2004H15.1999C15.8399 23.2004 16.3999 22.6404 16.3999 22.0004V2.00003C16.3999 1.36002 15.8399 0.800013 15.1999 0.800013H2.3999ZM23.1999 14.4002H20.7999C20.5599 14.4002 20.3999 14.2402 20.3999 14.0002C20.3999 13.7602 20.5599 13.6002 20.7999 13.6002H22.7999V4.80008H20.7999C20.5599 4.80008 20.3999 4.64008 20.3999 4.40007C20.3999 4.16007 20.5599 4.00007 20.7999 4.00007H23.1999C23.4399 4.00007 23.5999 4.16007 23.5999 4.40007V14.0002C23.5999 14.2402 23.4399 14.4002 23.1999 14.4002Z" fill="#000033"/>
<path d="M15.2 22.4012H2.4C2.16 22.4012 2 22.2412 2 22.0012V2.00084C2 1.76083 2.16 1.60083 2.4 1.60083H15.2C15.44 1.60083 15.6 1.76083 15.6 2.00084V22.0012C15.6 22.2412 15.44 22.4012 15.2 22.4012ZM2.8 21.6012H14.8V2.40084H2.8V21.6012Z" fill="#000033"/>
<path d="M8.80039 20.0006H4.80039C4.56039 20.0006 4.40039 19.8406 4.40039 19.6006V15.0405C4.40039 14.3205 4.40039 13.6005 4.72039 12.8804C5.04039 12.3204 5.20039 11.6004 5.20039 10.9604V10.0004C5.20039 9.76039 5.36039 9.60039 5.60039 9.60039H8.00039C8.24039 9.60039 8.40039 9.76039 8.40039 10.0004V10.9604C8.40039 11.6004 8.56039 12.3204 8.88039 12.8804C9.20039 13.6005 9.20039 14.3205 9.20039 15.0405V19.6006C9.20039 19.8406 9.04039 20.0006 8.80039 20.0006ZM5.20039 19.2005H8.40039V15.0405C8.40039 14.4005 8.40039 13.7605 8.16039 13.2805C7.84039 12.5604 7.60039 11.7604 7.60039 10.9604V10.4004H6.00039V10.9604C6.00039 11.7604 5.84039 12.5604 5.44039 13.2805C5.20039 13.8405 5.20039 14.4005 5.20039 15.0405V19.2005ZM14.8004 8.80038H2.80039C2.56039 8.80038 2.40039 8.64038 2.40039 8.40037C2.40039 8.16037 2.56039 8.00037 2.80039 8.00037H14.8004C15.0404 8.00037 15.2004 8.16037 15.2004 8.40037C15.2004 8.64038 15.0404 8.80038 14.8004 8.80038Z" fill="#000033"/>
<path d="M12.7999 20.0003H8.7999C8.5599 20.0003 8.3999 19.8403 8.3999 19.6003V15.0402C8.3999 14.3202 8.3999 13.6002 8.7199 12.8802C9.0399 12.2402 9.1999 11.6002 9.1999 10.9602V10.0002C9.1999 9.76016 9.3599 9.60016 9.5999 9.60016H11.9999C12.2399 9.60016 12.3999 9.76016 12.3999 10.0002V10.9602C12.3999 11.6002 12.5599 12.3202 12.8799 12.8802C13.1999 13.6002 13.1999 14.3202 13.1999 15.0402V19.6003C13.1999 19.8403 13.0399 20.0003 12.7999 20.0003ZM9.1999 19.2003H12.3999V15.0402C12.3999 14.4002 12.3999 13.7602 12.1599 13.2802C11.8399 12.5602 11.5999 11.7602 11.5999 10.9602V10.4002H9.9999V10.9602C9.9999 11.7602 9.8399 12.5602 9.4399 13.2802C9.1999 13.8402 9.1999 14.4002 9.1999 15.0402V19.2003ZM19.5999 24.0004C18.7199 24.0004 17.9999 23.2804 17.9999 22.4004V1.60003C17.9999 0.720012 18.7199 0 19.5999 0C20.4799 0 21.1999 0.720012 21.1999 1.60003V22.4004C21.1999 23.2804 20.4799 24.0004 19.5999 24.0004ZM19.5999 0.800013C19.1199 0.800013 18.7999 1.12002 18.7999 1.60003V22.4004C18.7999 22.8804 19.1199 23.2004 19.5999 23.2004C20.0799 23.2004 20.3999 22.8804 20.3999 22.4004V1.60003C20.3999 1.12002 20.0799 0.800013 19.5999 0.800013Z" fill="#000033"/>
</svg>
