<svg width="24" height="24" viewBox="0 0 24 24" fill="none" xmlns="http://www.w3.org/2000/svg">
<path d="M22 21.6812H2C0.88 21.6812 0 20.8012 0 19.6811V7.68094C0 6.56092 0.88 5.68091 2 5.68091H22C23.12 5.68091 24 6.56092 24 7.68094V19.6811C24 20.8012 23.12 21.6812 22 21.6812ZM2 6.48092C1.36 6.48092 0.8 7.04093 0.8 7.68094V19.6811C0.8 20.3211 1.36 20.8812 2 20.8812H22C22.64 20.8812 23.2 20.3211 23.2 19.6811V7.68094C23.2 7.04093 22.64 6.48092 22 6.48092H2Z" fill="#000033"/>
<path d="M13.9996 20.0817H4.39961C2.87961 20.0817 1.59961 18.8016 1.59961 17.2816V10.0815C1.59961 8.56148 2.87961 7.28146 4.39961 7.28146H13.9996C15.5196 7.28146 16.7996 8.56148 16.7996 10.0815V17.2816C16.7996 18.8816 15.5196 20.0817 13.9996 20.0817ZM4.39961 8.08147C3.27961 8.08147 2.39961 8.96148 2.39961 10.0815V17.2816C2.39961 18.4016 3.27961 19.2817 4.39961 19.2817H13.9996C15.1196 19.2817 15.9996 18.4016 15.9996 17.2816V10.0815C15.9996 8.96148 15.1196 8.08147 13.9996 8.08147H4.39961ZM20.3996 10.4815H17.9996C17.7596 10.4815 17.5996 10.3215 17.5996 10.0815C17.5996 9.8415 17.7596 9.6815 17.9996 9.6815H20.3996C20.6396 9.6815 20.7996 9.8415 20.7996 10.0815C20.7996 10.3215 20.6396 10.4815 20.3996 10.4815ZM20.3996 12.0815H17.9996C17.7596 12.0815 17.5996 11.9215 17.5996 11.6815C17.5996 11.4415 17.7596 11.2815 17.9996 11.2815H20.3996C20.6396 11.2815 20.7996 11.4415 20.7996 11.6815C20.7996 11.9215 20.6396 12.0815 20.3996 12.0815ZM20.3996 13.6816H17.9996C17.7596 13.6816 17.5996 13.5216 17.5996 13.2816C17.5996 13.0416 17.7596 12.8815 17.9996 12.8815H20.3996C20.6396 12.8815 20.7996 13.0416 20.7996 13.2816C20.7996 13.5216 20.6396 13.6816 20.3996 13.6816ZM20.3996 20.0817H17.9996C17.7596 20.0817 17.5996 19.9217 17.5996 19.6817V15.6816C17.5996 15.4416 17.7596 15.2816 17.9996 15.2816H20.3996C20.6396 15.2816 20.7996 15.4416 20.7996 15.6816V19.6817C20.7996 19.9217 20.6396 20.0817 20.3996 20.0817ZM18.3996 19.2817H19.9996V16.0816H18.3996V19.2817ZM3.43961 23.9217C3.19961 23.9217 3.03961 23.7617 3.03961 23.5217V21.5217C3.03961 21.2817 3.19961 21.1217 3.43961 21.1217C3.67961 21.1217 3.83961 21.2817 3.83961 21.5217V23.5217C3.83961 23.7617 3.59961 23.9217 3.43961 23.9217ZM20.3996 23.9217C20.1596 23.9217 19.9996 23.7617 19.9996 23.5217V21.5217C19.9996 21.2817 20.1596 21.1217 20.3996 21.1217C20.6396 21.1217 20.7996 21.2817 20.7996 21.5217V23.5217C20.7996 23.7617 20.6396 23.9217 20.3996 23.9217ZM10.7996 6.48144C10.7196 6.48144 10.5596 6.48144 10.4796 6.40144L4.87961 0.801349C4.79961 0.641346 4.79961 0.401342 4.87961 0.24134C4.95961 0.0813372 5.27961 0.0813372 5.43961 0.24134L10.7196 5.52143L15.9996 0.24134C16.1596 0.0813372 16.3996 0.0813372 16.5596 0.24134C16.7196 0.401342 16.7196 0.641346 16.5596 0.801349L10.9596 6.40144C11.0396 6.48144 10.8796 6.48144 10.7996 6.48144Z" fill="#000033"/>
</svg>
