<svg width="27" height="56" viewBox="0 0 27 56" fill="none" xmlns="http://www.w3.org/2000/svg">
<rect width="27" height="56" fill="transparent"/>
<path d="M12 22C12 22.8284 12.6716 23.5 13.5 23.5C14.3284 23.5 15 22.8284 15 22C15 21.1716 14.3284 20.5 13.5 20.5C12.6716 20.5 12 21.1716 12 22Z" fill="#6C6C70"/>
<path d="M12 28C12 28.8284 12.6716 29.5 13.5 29.5C14.3284 29.5 15 28.8284 15 28C15 27.1716 14.3284 26.5 13.5 26.5C12.6716 26.5 12 27.1716 12 28Z" fill="#6C6C70"/>
<path d="M12 34C12 34.8284 12.6716 35.5 13.5 35.5C14.3284 35.5 15 34.8284 15 34C15 33.1716 14.3284 32.5 13.5 32.5C12.6716 32.5 12 33.1716 12 34Z" fill="#6C6C70"/>
</svg>
