<svg width="21" height="22" viewBox="0 0 21 22" fill="none" xmlns="http://www.w3.org/2000/svg">
<path d="M6.9375 3.62H6.75C6.85313 3.62 6.9375 3.539 6.9375 3.44V3.62H14.0625V3.44C14.0625 3.539 14.1469 3.62 14.25 3.62H14.0625V5.24H15.75V3.44C15.75 2.64575 15.0773 2 14.25 2H6.75C5.92266 2 5.25 2.64575 5.25 3.44V5.24H6.9375V3.62ZM18.75 5.24H2.25C1.83516 5.24 1.5 5.56175 1.5 5.96V6.68C1.5 6.779 1.58437 6.86 1.6875 6.86H3.10312L3.68203 18.6275C3.71953 19.3948 4.38047 20 5.17969 20H15.8203C16.6219 20 17.2805 19.397 17.318 18.6275L17.8969 6.86H19.3125C19.4156 6.86 19.5 6.779 19.5 6.68V5.96C19.5 5.56175 19.1648 5.24 18.75 5.24ZM15.6398 18.38H5.36016L4.79297 6.86H16.207L15.6398 18.38Z" fill="#6C6C70"/>
</svg>
