<svg width="22" height="22" viewBox="0 0 22 22" fill="none" xmlns="http://www.w3.org/2000/svg">
<rect width="22" height="22" fill="white"/>
<path d="M18.3063 5.96557L9.02406 15.2478L5.33367 15.8951C5.30709 15.8989 5.28981 15.9 5.27825 15.9C5.21603 15.9 5.15285 15.8776 5.09274 15.8202C5.06426 15.7914 5.04305 15.7563 5.03088 15.7178C5.01847 15.6784 5.01584 15.6367 5.02321 15.5961L5.02373 15.5931L5.67217 11.8959L14.9554 2.61266L18.3063 5.96557ZM18.5016 6.16092C18.5014 6.16076 18.5012 6.16061 18.5011 6.16045L18.5016 6.16092ZM6.44125 12.1224L6.32953 12.2341L6.30226 12.3897L5.95126 14.3922L5.82807 15.095L6.53071 14.9709L8.53096 14.6176L8.68609 14.5902L8.7975 14.4789L16.9583 6.32035L17.3119 5.9668L16.9583 5.6132L15.3091 3.96395L14.9555 3.61044L14.602 3.9639L6.44125 12.1224ZM18.9002 5.88112L18.6965 5.96561L18.9002 5.88112ZM2.72 18.79H19.28C19.4021 18.79 19.5 18.8879 19.5 19.01V19.5H2.5V19.01C2.5 18.8879 2.59789 18.79 2.72 18.79Z" fill="white" stroke="#0066FF"/>
</svg>
