<svg width="34" height="34" viewBox="0 0 34 34" fill="none" xmlns="http://www.w3.org/2000/svg">
<path d="M23.3947 9.6875H20.4533C20.242 9.6875 20.0393 9.60354 19.8898 9.4541C19.7404 9.30466 19.6564 9.10197 19.6564 8.89062C19.6564 8.67928 19.7404 8.47659 19.8898 8.32715C20.0393 8.17771 20.242 8.09375 20.4533 8.09375H22.2355L21.8947 7.62505C21.8207 7.5234 21.7238 7.44068 21.6118 7.38364C21.4998 7.32661 21.3759 7.29687 21.2502 7.29688H17.0002C16.8366 7.29689 16.677 7.34724 16.543 7.44109C16.4091 7.53494 16.3072 7.66775 16.2513 7.82148L15.3799 10.2188H23.781L23.3947 9.6875Z" fill="#000033"/>
<path d="M25.8499 14.637C26.0712 14.5266 26.3152 14.469 26.5625 14.4688H29.0856L27.2461 11.4025C27.1753 11.2845 27.0751 11.1868 26.9553 11.119C26.8355 11.0512 26.7002 11.0156 26.5625 11.0156H5.31253C5.15327 11.0156 4.99766 11.0633 4.86577 11.1526C4.73389 11.2419 4.63179 11.3687 4.57263 11.5165L2.9668 15.5312H24.0613L25.8499 14.637ZM7.96878 13.9375H7.03909C6.82775 13.9375 6.62506 13.8535 6.47562 13.7041C6.32617 13.5547 6.24222 13.352 6.24222 13.1406C6.24222 12.9293 6.32617 12.7266 6.47562 12.5771C6.62506 12.4277 6.82775 12.3438 7.03909 12.3438H7.96878C8.18013 12.3438 8.38281 12.4277 8.53226 12.5771C8.6817 12.7266 8.76566 12.9293 8.76566 13.1406C8.76566 13.352 8.6817 13.5547 8.53226 13.7041C8.38281 13.8535 8.18013 13.9375 7.96878 13.9375ZM12.1524 13.9375H11.0899C10.8785 13.9375 10.6758 13.8535 10.5264 13.7041C10.377 13.5547 10.293 13.352 10.293 13.1406C10.293 12.9293 10.377 12.7266 10.5264 12.5771C10.6758 12.4277 10.8785 12.3438 11.0899 12.3438H12.1524C12.3637 12.3438 12.5664 12.4277 12.7159 12.5771C12.8653 12.7266 12.9493 12.9293 12.9493 13.1406C12.9493 13.352 12.8653 13.5547 12.7159 13.7041C12.5664 13.8535 12.3637 13.9375 12.1524 13.9375ZM16.6016 13.9375H15.3399C15.1285 13.9375 14.9258 13.8535 14.7764 13.7041C14.627 13.5547 14.543 13.352 14.543 13.1406C14.543 12.9293 14.627 12.7266 14.7764 12.5771C14.9258 12.4277 15.1285 12.3438 15.3399 12.3438H16.6016C16.8129 12.3438 17.0156 12.4277 17.1651 12.5771C17.3145 12.7266 17.3985 12.9293 17.3985 13.1406C17.3985 13.352 17.3145 13.5547 17.1651 13.7041C17.0156 13.8535 16.8129 13.9375 16.6016 13.9375ZM20.7188 13.9375H19.6563C19.4449 13.9375 19.2422 13.8535 19.0928 13.7041C18.9434 13.5547 18.8594 13.352 18.8594 13.1406C18.8594 12.9293 18.9434 12.7266 19.0928 12.5771C19.2422 12.4277 19.4449 12.3438 19.6563 12.3438H20.7188C20.9301 12.3438 21.1328 12.4277 21.2823 12.5771C21.4317 12.7266 21.5157 12.9293 21.5157 13.1406C21.5157 13.352 21.4317 13.5547 21.2823 13.7041C21.1328 13.8535 20.9301 13.9375 20.7188 13.9375ZM23.1094 13.1406C23.1094 12.9293 23.1934 12.7266 23.3428 12.5771C23.4922 12.4277 23.6949 12.3438 23.9063 12.3438H25.168C25.3793 12.3438 25.582 12.4277 25.7315 12.5771C25.8809 12.7266 25.9649 12.9293 25.9649 13.1406C25.9649 13.352 25.8809 13.5547 25.7315 13.7041C25.582 13.8535 25.3793 13.9375 25.168 13.9375H23.9063C23.6949 13.9375 23.4922 13.8535 23.3428 13.7041C23.1934 13.5547 23.1094 13.352 23.1094 13.1406Z" fill="#000033"/>
<path d="M33.697 15.8214C33.6458 15.6601 33.5446 15.5193 33.4081 15.4194C33.2715 15.3195 33.1067 15.2656 32.9375 15.2656H26.5625C26.4388 15.2656 26.3168 15.2944 26.2062 15.3498L24.2494 16.3281H1.06251C0.92667 16.3281 0.793089 16.3628 0.674447 16.429C0.555805 16.4951 0.456042 16.5905 0.384631 16.7061C0.31322 16.8216 0.272531 16.9535 0.266429 17.0892C0.260328 17.2249 0.289015 17.3599 0.349768 17.4814L2.47477 21.7314C2.54095 21.8638 2.64269 21.9751 2.76857 22.0529C2.89446 22.1307 3.03952 22.1719 3.18751 22.1719H27.3594C27.5074 22.1719 27.6524 22.1307 27.7783 22.0529C27.9042 21.9751 28.0059 21.8638 28.0721 21.7314C28.869 20.1372 32.1863 17.5687 33.3972 16.7135C33.5354 16.6159 33.6389 16.4768 33.6928 16.3164C33.7467 16.156 33.7482 15.9826 33.697 15.8214Z" fill="#000033"/>
<path d="M11.4219 9.15625H7.70312V10.2188H11.4219V9.15625Z" fill="#000033"/>
<path d="M11.4219 7.5625C11.4219 7.35116 11.3379 7.14847 11.1885 6.99902C11.039 6.84958 10.8363 6.76562 10.625 6.76562H8.5C8.28866 6.76562 8.08597 6.84958 7.93652 6.99902C7.78708 7.14847 7.70313 7.35116 7.70312 7.5625V8.09375H11.4219V7.5625Z" fill="#000033"/>
</svg>
