<svg width="34" height="34" viewBox="0 0 34 34" fill="none" xmlns="http://www.w3.org/2000/svg">
<path d="M23.3937 9.6875H20.4523C20.241 9.6875 20.0383 9.60354 19.8889 9.4541C19.7394 9.30466 19.6555 9.10197 19.6555 8.89062C19.6555 8.67928 19.7394 8.47659 19.8889 8.32715C20.0383 8.17771 20.241 8.09375 20.4523 8.09375H22.2346L21.8937 7.62505C21.8198 7.5234 21.7228 7.44068 21.6108 7.38364C21.4988 7.32661 21.3749 7.29687 21.2492 7.29688H16.9992C16.8356 7.29689 16.676 7.34724 16.5421 7.44109C16.4081 7.53494 16.3062 7.66775 16.2504 7.82148L15.3789 10.2188H23.78L23.3937 9.6875Z" fill="white"/>
<path d="M25.8479 14.637C26.0693 14.5266 26.3132 14.469 26.5606 14.4688H29.0836L27.2442 11.4025C27.1733 11.2845 27.0731 11.1868 26.9534 11.119C26.8336 11.0512 26.6982 11.0156 26.5606 11.0156H5.31058C5.15132 11.0156 4.9957 11.0633 4.86382 11.1526C4.73194 11.2419 4.62983 11.3687 4.57068 11.5165L2.96484 15.5312H24.0593L25.8479 14.637ZM7.96683 13.9375H7.03714C6.8258 13.9375 6.62311 13.8535 6.47366 13.7041C6.32422 13.5547 6.24027 13.352 6.24027 13.1406C6.24027 12.9293 6.32422 12.7266 6.47366 12.5771C6.62311 12.4277 6.8258 12.3438 7.03714 12.3438H7.96683C8.17817 12.3438 8.38086 12.4277 8.5303 12.5771C8.67975 12.7266 8.7637 12.9293 8.7637 13.1406C8.7637 13.352 8.67975 13.5547 8.5303 13.7041C8.38086 13.8535 8.17817 13.9375 7.96683 13.9375ZM12.1504 13.9375H11.0879C10.8766 13.9375 10.6739 13.8535 10.5244 13.7041C10.375 13.5547 10.291 13.352 10.291 13.1406C10.291 12.9293 10.375 12.7266 10.5244 12.5771C10.6739 12.4277 10.8766 12.3438 11.0879 12.3438H12.1504C12.3618 12.3438 12.5645 12.4277 12.7139 12.5771C12.8633 12.7266 12.9473 12.9293 12.9473 13.1406C12.9473 13.352 12.8633 13.5547 12.7139 13.7041C12.5645 13.8535 12.3618 13.9375 12.1504 13.9375ZM16.5996 13.9375H15.3379C15.1266 13.9375 14.9239 13.8535 14.7744 13.7041C14.625 13.5547 14.541 13.352 14.541 13.1406C14.541 12.9293 14.625 12.7266 14.7744 12.5771C14.9239 12.4277 15.1266 12.3438 15.3379 12.3438H16.5996C16.811 12.3438 17.0137 12.4277 17.1631 12.5771C17.3126 12.7266 17.3965 12.9293 17.3965 13.1406C17.3965 13.352 17.3126 13.5547 17.1631 13.7041C17.0137 13.8535 16.811 13.9375 16.5996 13.9375ZM20.7168 13.9375H19.6543C19.443 13.9375 19.2403 13.8535 19.0909 13.7041C18.9414 13.5547 18.8575 13.352 18.8575 13.1406C18.8575 12.9293 18.9414 12.7266 19.0909 12.5771C19.2403 12.4277 19.443 12.3438 19.6543 12.3438H20.7168C20.9282 12.3438 21.1309 12.4277 21.2803 12.5771C21.4297 12.7266 21.5137 12.9293 21.5137 13.1406C21.5137 13.352 21.4297 13.5547 21.2803 13.7041C21.1309 13.8535 20.9282 13.9375 20.7168 13.9375ZM23.1075 13.1406C23.1075 12.9293 23.1914 12.7266 23.3409 12.5771C23.4903 12.4277 23.693 12.3438 23.9043 12.3438H25.166C25.3774 12.3438 25.5801 12.4277 25.7295 12.5771C25.879 12.7266 25.9629 12.9293 25.9629 13.1406C25.9629 13.352 25.879 13.5547 25.7295 13.7041C25.5801 13.8535 25.3774 13.9375 25.166 13.9375H23.9043C23.693 13.9375 23.4903 13.8535 23.3409 13.7041C23.1914 13.5547 23.1075 13.352 23.1075 13.1406Z" fill="white"/>
<path d="M33.697 15.8214C33.6458 15.6601 33.5446 15.5193 33.4081 15.4194C33.2715 15.3195 33.1067 15.2656 32.9375 15.2656H26.5625C26.4388 15.2656 26.3168 15.2944 26.2062 15.3498L24.2494 16.3281H1.06251C0.92667 16.3281 0.793089 16.3628 0.674447 16.429C0.555805 16.4951 0.456042 16.5905 0.384631 16.7061C0.31322 16.8216 0.272531 16.9535 0.266429 17.0892C0.260328 17.2249 0.289015 17.3599 0.349768 17.4814L2.47477 21.7314C2.54095 21.8638 2.64269 21.9751 2.76857 22.0529C2.89446 22.1307 3.03952 22.1719 3.18751 22.1719H27.3594C27.5074 22.1719 27.6524 22.1307 27.7783 22.0529C27.9042 21.9751 28.0059 21.8638 28.0721 21.7314C28.869 20.1372 32.1863 17.5687 33.3972 16.7135C33.5354 16.6159 33.6389 16.4768 33.6928 16.3164C33.7467 16.156 33.7482 15.9826 33.697 15.8214Z" fill="white"/>
<path d="M11.4219 9.15625H7.70312V10.2188H11.4219V9.15625Z" fill="white"/>
<path d="M11.4219 7.5625C11.4219 7.35116 11.3379 7.14847 11.1885 6.99902C11.039 6.84958 10.8363 6.76562 10.625 6.76562H8.5C8.28866 6.76562 8.08597 6.84958 7.93652 6.99902C7.78708 7.14847 7.70313 7.35116 7.70312 7.5625V8.09375H11.4219V7.5625Z" fill="white"/>
</svg>
